<?xml version="1.0" encoding="utf-8"?>
<!-- Generator: Adobe Illustrator 24.0.2, SVG Export Plug-In . SVG Version: 6.00 Build 0)  -->
<svg version="1.1" id="Capa_1" xmlns="http://www.w3.org/2000/svg" xmlns:xlink="http://www.w3.org/1999/xlink" x="0px" y="0px"
	 viewBox="0 0 1800 1800" style="enable-background:new 0 0 1800 1800;" xml:space="preserve">
<style type="text/css">
	.st0{fill:#FF940A;}
</style>
<path d="M1306.6,1286.9c-125-15.8-170.6-75.3-188.3-116c100.6,18.3,203.5-17.4,271.2-94.2c10.3-11.8,12.3-28.7,4.9-42.6
	c-46.2-106-68.3-221-64.8-336.7c0-167.6,0-613.1-431.2-613.1c-431.2,0-429.7,445.5-429.7,613.1c3.5,115.6-18.6,230.6-64.8,336.7
	c-7,14.1-4.4,31.1,6.4,42.6c67.7,76.9,170.8,112.7,271.5,94.2c-16.6,42.6-62.1,100.2-188.3,116c-226,29-335.9,158.6-335.9,396.5
	c0,10,4,19.6,11,26.6c7.1,7.1,16.6,11,26.6,11h1409.6c10,0,19.6-4,26.6-11c7.1-7.1,11-16.6,11-26.6
	C1642.5,1445.5,1532.5,1317,1306.6,1286.9L1306.6,1286.9L1306.6,1286.9z"/>
<path class="st0" d="M898.5,1645.8H232.3c9.8-175.9,91.9-261.3,268.9-283.9c269.3-34.3,263.6-240.7,263.6-242.5l0,0
	c-1-11.5-7.3-21.9-17-28.2c-10-6.6-22.6-8-33.9-3.8c0,0-134.1,49-231.6-41.4v0c42.9-110.5,63.8-228.3,61.8-346.8
	c0-265.9,42.2-537.8,355.9-537.8s355.9,271.9,355.9,537.8c-2.1,118.5,18.9,236.3,61.8,346.8c-96.4,89.6-226,43.7-231.6,41.4v0
	c-11.3-4.2-23.8-2.8-33.9,3.8c-10.1,6.6-16.4,17.7-16.9,29.8c0,1.9-7.2,208.3,263.6,242.5c177,22.6,259.1,108.1,268.9,283.9
	L898.5,1645.8z"/>
</svg>
