<svg width="285" height="562" viewBox="0 0 285 562" fill="none" xmlns="http://www.w3.org/2000/svg">
<path fill-rule="evenodd" clip-rule="evenodd" d="M118.474 561.443L106.125 426.816L36.7506 426.722L102.245 258.576L101.631 233.606L40.9693 300.7C32.7505 311.913 22.136 316.257 11.516 310.809C0.917046 305.382 -3.08802 292.002 2.56292 280.981L77.3029 179.226C83.2613 171.393 92.0269 158.898 108.918 158.934H175.855C192.746 158.898 201.511 171.393 207.47 179.226L282.21 280.981C287.861 292.002 283.855 305.382 273.257 310.809C262.637 316.257 249.454 311.736 243.803 300.7L183.142 233.606L182.527 258.576L248.022 426.722L178.647 426.816L166.288 561.443H118.474ZM81.4475 61.016C81.4475 27.3387 108.786 0 142.464 0C176.141 0 203.49 27.3387 203.49 61.016C203.49 94.6933 176.141 122.032 142.464 122.032C108.786 122.032 81.4475 94.6933 81.4475 61.016Z" fill="#557FF1"/>
</svg>
