<svg width="297" height="593" viewBox="0 0 297 593" fill="none" xmlns="http://www.w3.org/2000/svg">
<path fill-rule="evenodd" clip-rule="evenodd" d="M113.824 592.856L101.267 450.136L24.9602 450.027L101.605 269.32L61.3081 314.315L57.8707 318.424C47.5425 329.335 32.928 334.763 17.8493 327.023C1.12 318.46 -4.55199 297.84 3.83868 281.492L4.23451 280.716L73.7399 183.962C79.1617 176.836 91.2452 158.883 114.751 158.931H181.663C205.168 158.884 217.256 176.838 222.679 183.962L292.179 280.716L292.574 281.492C300.97 297.842 295.298 318.462 278.569 327.023C263.938 334.528 246.766 329.846 237.074 317.565L194.804 269.319L271.46 450.026L195.153 450.135L182.591 592.855L113.824 592.856ZM161.225 569.523L173.788 426.829L236.236 426.751L170.231 271.165L183.121 221.263L253.485 299.878C257.886 304.732 263.72 307.951 268.455 305.519C272.439 303.472 274.819 297.602 271.923 292.534L203.907 197.837C197.413 189.295 191.97 182.249 181.689 182.269H114.73C104.449 182.248 99.0008 189.295 92.5061 197.837L24.4848 292.534C21.8703 296.539 24.0525 303.17 27.8755 305.232C35.7192 309.477 41.2448 301.56 43.5528 299.185L113.298 221.264L126.184 271.165L60.1836 426.752L122.632 426.83L135.194 569.523L161.225 569.523ZM75.5281 72.6827C75.5281 32.568 108.085 0 148.211 0C188.331 0 220.904 32.568 220.904 72.6827C220.904 112.808 188.331 145.371 148.211 145.371C108.085 145.371 75.5281 112.808 75.5281 72.6827ZM197.57 72.6827C197.57 45.4533 175.444 23.3333 148.209 23.3333C120.975 23.3333 98.8601 45.4533 98.8601 72.6827C98.8601 99.9227 120.975 122.037 148.209 122.037C175.444 122.037 197.57 99.9227 197.57 72.6827Z" fill="#3F004D"/>
</svg>
