<svg width="288" height="721" viewBox="0 0 288 721" fill="none" xmlns="http://www.w3.org/2000/svg">
<path d="M74.4882 468.056H140.252C138.566 516.618 134.541 629.696 131.939 703.282C131.514 712.725 122.663 720.334 111.706 720.537C100.857 720.605 91.8143 713.526 91.012 704.048C86.7597 658.86 74.7627 532.541 64.2244 466.288C67.3941 467.428 70.845 468.058 74.4873 468.058L74.4882 468.056Z" fill="#212635"/>
<path d="M223.308 466.242C212.728 532.493 200.772 658.842 196.521 704.042C195.713 713.423 186.784 720.532 176.018 720.532H175.791C164.828 720.334 155.977 712.724 155.594 703.177C152.837 624.813 150.074 546.417 147.281 468.057H213.01C216.64 468.052 220.163 467.421 223.309 466.25L223.308 466.242Z" fill="#212635"/>
<path d="M125.519 155.642L130.034 164.361V153.59C129.921 153.559 129.843 153.559 129.729 153.522C77.0328 143.512 81.8235 85.9385 81.8235 85.9385C131.643 84.2718 159.43 43.3865 159.43 43.3865C168.055 69.2505 197.755 79.2665 197.755 79.2665C215.961 98.4598 197.755 105.964 197.755 105.964C197.755 105.964 188.018 142.442 157.517 152.286V164.333L162.02 155.636L169.418 156.839C190.787 160.313 207.868 165.313 220.571 171.667L213.466 57.4693C211.433 25.2293 180.853 0 143.755 0C106.692 0 76.0771 25.2293 74.079 57.4693L66.938 171.677C79.6411 165.323 96.7341 160.318 118.116 156.839L125.519 155.642Z" fill="#212635"/>
<path d="M254.282 219.789C248.492 207.706 239.988 197.158 229.139 188.882C215.341 176.033 187.746 169.393 167.669 166.122L152.167 196.018C148.896 202.326 138.609 202.326 135.344 196.018L119.842 166.122C99.7585 169.393 72.1686 176.034 58.3722 188.882C47.5291 197.158 39.0179 207.705 33.2351 219.789C16.7163 254.034 -15.6092 391.309 8.82212 399.362C32.4588 407.149 27.8947 371.389 29.8988 366.545C29.8988 366.545 38.84 283.665 69.0253 245.894C71.9738 252.905 74.8506 260.446 77.4582 268.321C83.5166 286.742 85.586 305.9 83.6302 324.758C82.5596 336.842 79.9521 349.956 72.4402 366.409C65.1796 384.914 57.2192 412.726 57.4524 444.909C57.5122 453.091 65.1197 459.726 74.5162 459.726H213.006C222.402 459.726 230.009 453.091 230.07 444.909C230.303 412.726 222.343 384.914 215.082 366.409C207.57 349.956 204.963 336.841 203.892 324.758C201.936 305.898 204.006 286.742 210.064 268.321C212.672 260.446 215.542 252.905 218.497 245.894C248.682 283.665 257.623 366.545 257.623 366.545C259.627 371.389 255.07 407.149 278.7 399.362C303.132 391.31 270.8 254.029 254.287 219.789H254.282Z" fill="#212635"/>
</svg>
