<svg width="288" height="721" viewBox="0 0 288 721" fill="none" xmlns="http://www.w3.org/2000/svg">
<path d="M74.4878 468.056H140.252C138.565 516.618 134.54 629.696 131.938 703.282C131.514 712.725 122.662 720.334 111.705 720.537C100.856 720.605 91.8138 713.527 91.0115 704.048C86.7593 658.86 74.7623 532.541 64.224 466.288C67.3938 467.428 70.8446 468.058 74.4869 468.058L74.4878 468.056Z" fill="#212635"/>
<path d="M223.307 466.242C212.727 532.493 200.771 658.842 196.52 704.042C195.712 713.422 186.783 720.532 176.017 720.532H175.79C164.827 720.334 155.976 712.724 155.594 703.177C152.837 624.813 150.073 546.417 147.28 468.057H213.009C216.639 468.052 220.162 467.421 223.308 466.25L223.307 466.242Z" fill="#212635"/>
<path d="M125.518 155.642L130.034 164.361V153.59C129.92 153.559 129.842 153.559 129.728 153.522C77.0324 143.512 81.8231 85.9385 81.8231 85.9385C131.642 84.2718 159.43 43.3865 159.43 43.3865C168.054 69.2505 197.754 79.2665 197.754 79.2665C215.96 98.4598 197.754 105.964 197.754 105.964C197.754 105.964 188.017 142.442 157.516 152.286V164.333L162.019 155.636L169.417 156.839C190.786 160.313 207.867 165.313 220.57 171.667L213.465 57.4693C211.432 25.2293 180.852 0 143.754 0C106.692 0 76.0767 25.2293 74.0786 57.4693L66.9376 171.677C79.6407 165.323 96.7336 160.318 118.115 156.839L125.518 155.642Z" fill="#212635"/>
<path d="M254.281 219.789C248.491 207.706 239.987 197.158 229.137 188.882C215.34 176.033 187.745 169.393 167.668 166.122L152.166 196.018C148.895 202.326 138.608 202.326 135.343 196.018L119.841 166.122C99.758 169.393 72.1683 176.034 58.3719 188.882C47.5289 197.158 39.0177 207.705 33.2349 219.789C16.7163 254.034 -15.6091 391.309 8.82208 399.362C32.4586 407.149 27.8945 371.389 29.8987 366.545C29.8987 366.545 38.8398 283.665 69.025 245.894C71.9735 252.905 74.8502 260.446 77.4578 268.321C83.5162 286.742 85.5856 305.9 83.6298 324.758C82.5592 336.842 79.9517 349.956 72.4399 366.409C65.1793 384.914 57.219 412.726 57.4521 444.909C57.512 453.091 65.1194 459.726 74.5158 459.726H213.005C222.401 459.726 230.008 453.091 230.069 444.909C230.302 412.726 222.342 384.914 215.081 366.409C207.569 349.956 204.962 336.841 203.891 324.758C201.935 305.898 204.005 286.742 210.063 268.321C212.671 260.446 215.541 252.905 218.496 245.894C248.681 283.665 257.622 366.545 257.622 366.545C259.626 371.389 255.068 407.149 278.699 399.362C303.13 391.31 270.798 254.029 254.286 219.789H254.281Z" fill="#9A55BE"/>
</svg>
