<?xml version="1.0" encoding="utf-8"?>
<!-- Generator: Adobe Illustrator 24.0.2, SVG Export Plug-In . SVG Version: 6.00 Build 0)  -->
<svg version="1.1" id="Capa_1" xmlns="http://www.w3.org/2000/svg" xmlns:xlink="http://www.w3.org/1999/xlink" x="0px" y="0px"
	 viewBox="0 0 1800 1800" style="enable-background:new 0 0 1800 1800;" xml:space="preserve">
<style type="text/css">
	.st0{fill:#F5FFB4;}
</style>
<path d="M1306.55,1286.93c-125.03-15.81-170.6-75.31-188.29-115.99c100.63,18.3,203.5-17.41,271.15-94.15
	c10.33-11.78,12.27-28.72,4.89-42.56c-46.2-106.05-68.32-221.04-64.77-336.67c0-167.59,0-613.08-431.19-613.08
	c-431.22,0-429.7,445.52-429.7,613.08c3.54,115.62-18.57,230.61-64.77,336.67c-6.99,14.13-4.43,31.11,6.39,42.56
	c67.67,76.93,170.76,112.67,271.52,94.15c-16.57,42.56-62.14,100.18-188.29,115.99c-225.96,29-335.93,158.55-335.93,396.55
	c0,9.99,3.96,19.56,11.03,26.62c7.06,7.07,16.63,11.03,26.62,11.03h1409.58c10,0,19.57-3.96,26.63-11.03
	c7.06-7.06,11.03-16.63,11.03-26.62c0-238.01-109.96-366.44-335.93-396.55H1306.55z"/>
<path class="st0" d="M899.83,1645.81H233.65c9.8-175.87,91.88-261.35,268.89-283.95c269.27-34.27,263.62-240.65,263.62-242.53
	l-0.01-0.01c-1.01-11.51-7.26-21.93-16.95-28.24c-10.05-6.58-22.63-7.98-33.89-3.76c0,0-134.07,48.96-231.61-41.42v-0.01
	c42.87-110.52,63.85-228.31,61.76-346.84c0-265.88,42.18-537.78,355.88-537.78s355.88,271.9,355.88,537.78
	c-2.08,118.53,18.9,236.32,61.77,346.84c-96.41,89.63-225.96,43.69-231.6,41.42v0.01c-11.26-4.22-23.84-2.82-33.89,3.76
	c-10.1,6.63-16.39,17.69-16.95,29.76c0,1.88-7.15,208.25,263.62,242.53c176.99,22.6,259.09,108.08,268.89,283.95L899.83,1645.81z"/>
</svg>
